<?xml version="1.0" encoding="UTF-8" standalone="no"?>
<svg
   xmlns:dc="http://purl.org/dc/elements/1.1/"
   xmlns:cc="http://creativecommons.org/ns#"
   xmlns:rdf="http://www.w3.org/1999/02/22-rdf-syntax-ns#"
   xmlns:svg="http://www.w3.org/2000/svg"
   xmlns="http://www.w3.org/2000/svg"
   xmlns:sodipodi="http://sodipodi.sourceforge.net/DTD/sodipodi-0.dtd"
   xmlns:inkscape="http://www.inkscape.org/namespaces/inkscape"
   version="1.1"
   viewBox="0 0 201.74442 201.74297"
   id="svg2"
   inkscape:version="0.91 r13725"
   sodipodi:docname="ts-configurable.svg"
   width="201.74442"
   height="201.74298"
   inkscape:export-filename="/home/ben/Desktop/ts-configurable.png"
   inkscape:export-xdpi="89.555412"
   inkscape:export-ydpi="89.555412">
  <rect
     style="fill:#007acc;fill-opacity:1;stroke:none;stroke-width:1;stroke-miterlimit:4;stroke-dasharray:none;stroke-dashoffset:0;stroke-opacity:1"
     id="rect4160"
     width="201.74303"
     height="201.74298"
     x="0.0013862305"
     y="-7.6293945e-06" />
  <g
     id="g4233"
     transform="matrix(0.31353884,0,0,0.31422405,-357.83386,42.779728)"
     style="opacity:0.07000002">
    <rect
       y="-136.11397"
       x="1141.2744"
       height="641.97241"
       width="642.02057"
       id="rect4225"
       style="opacity:0.947;fill:#ffffff;fill-opacity:1;stroke:none;stroke-width:1;stroke-miterlimit:4;stroke-dasharray:none;stroke-dashoffset:0;stroke-opacity:1" />
    <path
       d="m 1141.3069,184.88016 0,321.00628 321.0065,0 321.0061,0 0,-321.00628 0,-321.00637 -321.0061,0 -321.0065,0 0,321.00637 z m 517.3808,-25.5786 c 16.3051,4.07627 28.7377,11.31165 40.1513,23.13283 5.9106,6.31822 14.6746,17.83369 15.3879,20.58517 0.2038,0.81526 -27.7186,19.56611 -44.6352,30.0625 -0.6114,0.40763 -3.0572,-2.24195 -5.8086,-6.31822 -8.2545,-12.025 -16.9166,-17.22224 -30.1644,-18.1394 -19.4642,-1.32479 -31.9988,8.86589 -31.8969,25.88432 0,4.99343 0.7134,7.94873 2.7515,12.025 4.2801,8.86589 12.2288,14.16504 37.196,24.96716 45.9599,19.76992 65.628,32.81398 77.8568,51.36102 13.6555,20.68707 16.7127,53.70487 7.4392,78.2644 -10.1907,26.69958 -35.4636,44.83899 -71.0291,50.85144 -11.0059,1.93623 -37.094,1.6305 -48.9152,-0.50954 -25.7824,-4.5858 -50.2401,-17.3241 -65.3223,-34.03681 -5.9106,-6.52203 -17.426,-23.54047 -16.7127,-24.76335 0.3057,-0.40763 2.9553,-2.03813 5.9106,-3.77055 2.8534,-1.63051 13.6555,-7.84682 23.8462,-13.75741 l 18.4451,-10.70022 3.8725,5.70678 c 5.4011,8.25445 17.2222,19.5661 24.3557,23.33666 20.4833,10.80211 48.6095,9.27351 62.4689,-3.15911 5.9106,-5.40106 8.3563,-11.00594 8.3563,-19.26039 0,-7.43919 -0.9171,-10.70021 -4.7896,-16.30508 -4.9934,-7.13348 -15.1841,-13.14598 -44.1256,-25.68051 -33.1197,-14.26695 -47.3867,-23.13284 -60.4307,-37.19597 -7.5412,-8.15255 -14.6746,-21.19661 -17.6299,-32.10064 -2.4458,-9.0697 -3.0572,-31.79491 -1.121,-40.96653 6.8278,-31.99872 30.9797,-54.31631 65.8318,-60.94025 11.3116,-2.14004 37.6036,-1.32479 48.7114,1.4267 z m -150.7201,26.80148 0.2038,26.29195 -41.7818,0 -41.7817,0 0,118.7214 0,118.72134 -29.5529,0 -29.553,0 0,-118.72134 0,-118.7214 -41.7819,0 -41.7818,0 0,-25.78242 c 0,-14.26695 0.3057,-26.19004 0.7133,-26.49576 0.3057,-0.40763 51.1573,-0.61144 112.811,-0.50953 l 112.1993,0.30572 0.3057,26.19004 z"
       id="path6-3"
       inkscape:connector-curvature="0"
       style="opacity:0.947;fill:#007acc;fill-opacity:1;stroke:none" />
  </g>
  <metadata
     id="metadata12">
    <rdf:RDF>
      <cc:Work
         rdf:about="">
        <dc:format>image/svg+xml</dc:format>
        <dc:type
           rdf:resource="http://purl.org/dc/dcmitype/StillImage" />
        <dc:title />
      </cc:Work>
    </rdf:RDF>
  </metadata>
  <defs
     id="defs10" />
  <sodipodi:namedview
     pagecolor="#ffffff"
     bordercolor="#666666"
     borderopacity="1"
     objecttolerance="10"
     gridtolerance="10"
     guidetolerance="10"
     inkscape:pageopacity="0"
     inkscape:pageshadow="2"
     inkscape:window-width="1920"
     inkscape:window-height="1053"
     id="namedview8"
     showgrid="false"
     inkscape:zoom="1"
     inkscape:cx="4.0992926"
     inkscape:cy="82.057116"
     inkscape:window-x="0"
     inkscape:window-y="0"
     inkscape:window-maximized="1"
     inkscape:current-layer="svg2"
     fit-margin-top="0"
     fit-margin-left="0"
     fit-margin-right="0"
     fit-margin-bottom="0" />
  <text
     xml:space="preserve"
     style="font-style:normal;font-variant:normal;font-weight:bold;font-stretch:semi-condensed;font-size:38.63991165px;line-height:89.99999762%;font-family:'DejaVu Sans';-inkscape-font-specification:'DejaVu Sans, Bold Semi-Condensed';text-align:start;letter-spacing:-14.62998329px;word-spacing:0px;writing-mode:lr-tb;text-anchor:start;fill:#000000;fill-opacity:1;stroke:none;stroke-width:1px;stroke-linecap:butt;stroke-linejoin:miter;stroke-opacity:1;"
     x="194.13605"
     y="148.22386"
     id="text3339"
     sodipodi:linespacing="89.999998%"><tspan
       sodipodi:role="line"
       id="tspan3341"
       x="194.13605"
       y="148.22386"
       style="font-style:normal;font-variant:normal;font-weight:bold;font-stretch:semi-condensed;font-size:38.63999939px;line-height:89.99999762%;font-family:'DejaVu Sans';-inkscape-font-specification:'DejaVu Sans, Bold Semi-Condensed';text-align:end;writing-mode:lr-tb;text-anchor:end;fill:#ffffff;letter-spacing:0px">@CONFIG</tspan><tspan
       sodipodi:role="line"
       x="194.13605"
       y="182.99986"
       style="font-style:normal;font-variant:normal;font-weight:bold;font-stretch:semi-condensed;font-size:38.63999939px;line-height:89.99999762%;font-family:'DejaVu Sans';-inkscape-font-specification:'DejaVu Sans, Bold Semi-Condensed';text-align:end;writing-mode:lr-tb;text-anchor:end;fill:#ffffff;letter-spacing:0px"
       id="tspan3343">URABLE</tspan></text>
  <text
     xml:space="preserve"
     style="font-style:normal;font-weight:normal;font-size:15px;line-height:125%;font-family:sans-serif;letter-spacing:0px;word-spacing:0px;fill:#000000;fill-opacity:1;stroke:none;stroke-width:1px;stroke-linecap:butt;stroke-linejoin:miter;stroke-opacity:1"
     x="121.62237"
     y="138.10336"
     id="text4285"
     sodipodi:linespacing="125%"><tspan
       sodipodi:role="line"
       id="tspan4287"
       x="121.62237"
       y="138.10336" /></text>
</svg>
